<mxfile host="app.diagrams.net" modified="2022-12-16T17:23:48.130Z" agent="5.0 (Macintosh; Intel Mac OS X 10_15_7) AppleWebKit/537.36 (KHTML, like Gecko) Chrome/108.0.0.0 Safari/537.36" etag="py8iW-5d-Qy7csc1ZZhK" version="20.7.2" type="github">
  <diagram id="8nm5g7JMp4kTllmlS38S" name="Page-1">
    <mxGraphModel dx="1371" dy="771" grid="1" gridSize="1" guides="1" tooltips="1" connect="1" arrows="1" fold="1" page="1" pageScale="1" pageWidth="1700" pageHeight="1100" math="0" shadow="0">
      <root>
        <mxCell id="0" />
        <mxCell id="1" parent="0" />
        <mxCell id="X1pH-D3nm08_cNBffR_C-1" value="UI" style="swimlane;whiteSpace=wrap;html=1;fillColor=#d5e8d4;strokeColor=#82b366;" parent="1" vertex="1">
          <mxGeometry x="94" y="62" width="200" height="499" as="geometry" />
        </mxCell>
        <mxCell id="X1pH-D3nm08_cNBffR_C-4" value="Crap" style="rounded=0;whiteSpace=wrap;html=1;fillColor=#dae8fc;strokeColor=#6c8ebf;rotation=-90;" parent="X1pH-D3nm08_cNBffR_C-1" vertex="1">
          <mxGeometry x="40" y="367" width="120" height="60" as="geometry" />
        </mxCell>
        <mxCell id="X1pH-D3nm08_cNBffR_C-5" value="Stuff" style="rounded=0;whiteSpace=wrap;html=1;fillColor=#dae8fc;strokeColor=#6c8ebf;rotation=-90;" parent="X1pH-D3nm08_cNBffR_C-1" vertex="1">
          <mxGeometry x="40" y="221" width="120" height="60" as="geometry" />
        </mxCell>
        <mxCell id="X1pH-D3nm08_cNBffR_C-6" value="Junk" style="rounded=0;whiteSpace=wrap;html=1;fillColor=#dae8fc;strokeColor=#6c8ebf;rotation=-90;" parent="X1pH-D3nm08_cNBffR_C-1" vertex="1">
          <mxGeometry x="40" y="75" width="120" height="60" as="geometry" />
        </mxCell>
        <mxCell id="X1pH-D3nm08_cNBffR_C-2" value="Action Execution" style="swimlane;whiteSpace=wrap;html=1;fillColor=#d5e8d4;strokeColor=#82b366;" parent="1" vertex="1">
          <mxGeometry x="314" y="363" width="609" height="200" as="geometry" />
        </mxCell>
        <mxCell id="X1pH-D3nm08_cNBffR_C-7" value="Start" style="rounded=0;whiteSpace=wrap;html=1;fillColor=#fff2cc;strokeColor=#d6b656;" parent="X1pH-D3nm08_cNBffR_C-2" vertex="1">
          <mxGeometry x="22" y="62" width="120" height="60" as="geometry" />
        </mxCell>
        <mxCell id="X1pH-D3nm08_cNBffR_C-8" value="Stop" style="rounded=0;whiteSpace=wrap;html=1;fillColor=#fff2cc;strokeColor=#d6b656;" parent="X1pH-D3nm08_cNBffR_C-2" vertex="1">
          <mxGeometry x="163" y="62" width="120" height="60" as="geometry" />
        </mxCell>
        <mxCell id="X1pH-D3nm08_cNBffR_C-9" value="Continue" style="rounded=0;whiteSpace=wrap;html=1;fillColor=#fff2cc;strokeColor=#d6b656;" parent="X1pH-D3nm08_cNBffR_C-2" vertex="1">
          <mxGeometry x="304" y="62" width="120" height="60" as="geometry" />
        </mxCell>
        <mxCell id="X1pH-D3nm08_cNBffR_C-3" value="Orchestra Runtime Engine" style="rounded=0;whiteSpace=wrap;html=1;fillColor=#d5e8d4;strokeColor=#82b366;" parent="1" vertex="1">
          <mxGeometry x="309" y="62" width="623" height="24" as="geometry" />
        </mxCell>
        <mxCell id="a8DX5aiDIXITJlmvfadv-1" style="edgeStyle=orthogonalEdgeStyle;rounded=0;orthogonalLoop=1;jettySize=auto;html=1;entryX=0.25;entryY=1;entryDx=0;entryDy=0;exitX=0.75;exitY=1;exitDx=0;exitDy=0;" parent="1" source="X1pH-D3nm08_cNBffR_C-10" target="X1pH-D3nm08_cNBffR_C-11" edge="1">
          <mxGeometry relative="1" as="geometry" />
        </mxCell>
        <mxCell id="_79iixzk7Kd8eRSQYpfJ-1" style="edgeStyle=orthogonalEdgeStyle;rounded=0;orthogonalLoop=1;jettySize=auto;html=1;entryX=0.5;entryY=1;entryDx=0;entryDy=0;exitX=0.25;exitY=1;exitDx=0;exitDy=0;" edge="1" parent="1" source="X1pH-D3nm08_cNBffR_C-10" target="X1pH-D3nm08_cNBffR_C-12">
          <mxGeometry relative="1" as="geometry">
            <Array as="points">
              <mxPoint x="420" y="246" />
              <mxPoint x="802" y="246" />
            </Array>
          </mxGeometry>
        </mxCell>
        <mxCell id="X1pH-D3nm08_cNBffR_C-10" value="Do This" style="rounded=0;whiteSpace=wrap;html=1;fillColor=#f5f5f5;fontColor=#333333;strokeColor=#666666;" parent="1" vertex="1">
          <mxGeometry x="390" y="133" width="120" height="60" as="geometry" />
        </mxCell>
        <mxCell id="XWhEygzTC9H4tLXGffY2-1" style="edgeStyle=orthogonalEdgeStyle;rounded=0;orthogonalLoop=1;jettySize=auto;html=1;entryX=0.25;entryY=1;entryDx=0;entryDy=0;exitX=0.75;exitY=1;exitDx=0;exitDy=0;" parent="1" source="X1pH-D3nm08_cNBffR_C-11" target="X1pH-D3nm08_cNBffR_C-12" edge="1">
          <mxGeometry relative="1" as="geometry" />
        </mxCell>
        <mxCell id="X1pH-D3nm08_cNBffR_C-11" value="Do That" style="rounded=0;whiteSpace=wrap;html=1;fillColor=#f5f5f5;fontColor=#333333;strokeColor=#666666;" parent="1" vertex="1">
          <mxGeometry x="566" y="133" width="120" height="60" as="geometry" />
        </mxCell>
        <mxCell id="X1pH-D3nm08_cNBffR_C-12" value="Do Other" style="rounded=0;whiteSpace=wrap;html=1;fillColor=#f5f5f5;fontColor=#333333;strokeColor=#666666;" parent="1" vertex="1">
          <mxGeometry x="742" y="133" width="120" height="60" as="geometry" />
        </mxCell>
      </root>
    </mxGraphModel>
  </diagram>
</mxfile>
